<?xml version="1.0" encoding="iso-8859-1"?>
<!-- Uploaded to: SVG Repo, www.svgrepo.com, Generator: SVG Repo Mixer Tools -->
<svg height="800px" width="800px" version="1.1" id="Layer_1" xmlns="http://www.w3.org/2000/svg" xmlns:xlink="http://www.w3.org/1999/xlink" 
	 viewBox="0 0 424.264 424.264" xml:space="preserve">
<g>
	<path style="fill:#2488FF;" d="M212.132,32.132C131.999,32.132,56.663,63.337,0,120l28.284,28.284
		c49.107-49.107,114.399-76.152,183.848-76.152s134.74,27.045,183.848,76.152L424.264,120
		C367.601,63.337,292.265,32.132,212.132,32.132z"/>
	<path style="fill:#2488FF;" d="M56.568,176.568l28.284,28.284c33.998-33.998,79.2-52.721,127.279-52.721
		s93.282,18.723,127.279,52.721l28.284-28.284c-41.553-41.553-96.799-64.437-155.563-64.437S98.121,135.016,56.568,176.568z"/>
	<path style="fill:#2488FF;" d="M113.137,233.137l28.284,28.284c38.99-38.989,102.432-38.989,141.422,0l28.284-28.284
		C256.541,178.551,167.723,178.551,113.137,233.137z"/>
	<path style="fill:#2488FF;" d="M152.132,332.132c0,33.084,26.916,60,60,60v-120C179.048,272.132,152.132,299.048,152.132,332.132z"
		/>
	<path style="fill:#005ECE;" d="M212.132,272.132v120c33.084,0,60-26.916,60-60S245.216,272.132,212.132,272.132z"/>
</g>
</svg>