<?xml version="1.0" standalone="no"?>
<!DOCTYPE svg PUBLIC "-//W3C//DTD SVG 20010904//EN"
 "http://www.w3.org/TR/2001/REC-SVG-20010904/DTD/svg10.dtd">
<svg version="1.0" xmlns="http://www.w3.org/2000/svg"
 width="100.000000pt" height="100.000000pt" viewBox="0 0 200.000000 200.000000"
 preserveAspectRatio="xMidYMid meet">
<metadata>
Created by potrace 1.10, written by Peter Selinger 2001-2011
</metadata>
<g transform="translate(0.000000,200.000000) scale(0.100000,-0.100000)"
fill="#000000" stroke="none">
<path d="M860 1885 c-277 -62 -475 -326 -457 -610 10 -148 45 -223 370 -795
83 -146 165 -291 181 -322 28 -53 46 -72 46 -49 0 4 69 129 153 277 243 425
366 655 393 733 67 192 28 403 -103 566 -61 75 -181 157 -270 185 -89 28 -227
34 -313 15z m310 -59 c285 -97 436 -410 336 -698 -38 -108 -486 -917 -513
-925 -15 -5 -26 12 -218 352 -194 342 -307 564 -323 630 -6 28 -9 93 -8 145 6
152 59 272 163 371 67 63 106 89 181 118 116 46 260 48 382 7z"/>
<path d="M920 1587 c-128 -36 -210 -142 -210 -271 0 -85 23 -145 76 -201 143
-148 370 -109 460 80 99 208 -106 454 -326 392z m139 -43 c180 -53 235 -285
97 -412 -101 -93 -252 -87 -345 13 -121 131 -69 337 101 396 65 23 81 23 147
3z"/>
</g>
</svg>
