<?xml version="1.0" standalone="no"?>
<!DOCTYPE svg PUBLIC "-//W3C//DTD SVG 20010904//EN"
 "http://www.w3.org/TR/2001/REC-SVG-20010904/DTD/svg10.dtd">
<svg version="1.0" xmlns="http://www.w3.org/2000/svg"
 width="200.000000pt" height="200.000000pt" viewBox="0 0 200.000000 200.000000"
 preserveAspectRatio="xMidYMid meet">

<g transform="translate(0.000000,200.000000) scale(0.100000,-0.100000)"
fill="#000000" stroke="none">
<path d="M445 1585 c-162 -57 -116 -295 58 -295 55 0 104 31 132 83 l20 37
510 2 510 3 0 25 0 25 -511 3 -512 2 -12 29 c-16 40 -60 80 -101 91 -42 12
-45 12 -94 -5z m95 -60 c57 -30 68 -100 23 -147 -45 -47 -118 -36 -149 23 -19
37 -11 79 19 106 39 36 65 40 107 18z"/>
<path d="M966 1180 c-36 -11 -81 -53 -96 -91 l-12 -29 -253 0 c-224 0 -254 -2
-259 -16 -16 -41 5 -44 263 -44 l246 0 20 -37 c54 -101 183 -113 259 -23 14
18 26 38 26 46 0 12 40 14 248 14 136 0 253 4 260 9 8 5 12 17 10 27 -3 18
-18 19 -258 22 l-255 3 -20 42 c-30 63 -111 98 -179 77z m111 -82 c30 -28 38
-70 19 -107 -31 -59 -104 -70 -149 -23 -46 48 -33 121 26 148 38 16 74 10 104
-18z"/>
<path d="M1465 776 c-37 -17 -70 -52 -84 -88 l-11 -28 -509 0 c-472 0 -509 -1
-515 -17 -16 -41 3 -43 531 -43 428 0 503 -2 503 -14 0 -23 51 -78 87 -92 72
-31 153 -2 192 66 40 71 20 151 -50 203 -34 25 -105 31 -144 13z m133 -81 c51
-59 6 -155 -73 -155 -65 0 -110 69 -85 131 26 62 113 75 158 24z"/>
</g>
</svg>
